<?xml version="1.0" encoding="utf-8"?>
<!-- Generator: Adobe Illustrator 23.1.0, SVG Export Plug-In . SVG Version: 6.00 Build 0)  -->
<svg version="1.1" id="圖層_1" xmlns="http://www.w3.org/2000/svg" xmlns:xlink="http://www.w3.org/1999/xlink" x="0px" y="0px"
	 viewBox="0 0 72 72" style="enable-background:new 0 0 72 72;" xml:space="preserve">
<style type="text/css">
	.st0{fill:#FFFFFF;}
</style>
<path class="st0" d="M36,72L36,72C16.1,72,0,55.9,0,36v0C0,16.1,16.1,0,36,0h0c19.9,0,36,16.1,36,36v0C72,55.9,55.9,72,36,72z"/>
<g>
	<g>
		<g>
			<path d="M19.2,56c-1.5-7.1-1.1-14.5-0.1-21.6C20.1,28,22,21.6,27,17.2c1.5-1.3-0.7-3.4-2.1-2.1c-5.4,4.6-7.6,11.6-8.6,18.4
				c-1.1,7.7-1.5,15.6,0.1,23.2C16.7,58.7,19.6,57.9,19.2,56L19.2,56z"/>
		</g>
	</g>
	<g>
		<g>
			<path d="M25.5,16.7c10.7,9.8,19.8,21.3,28.9,32.6c1.2,1.5,3.3-0.6,2.1-2.1c-9-11.4-18.1-22.8-28.9-32.6
				C26.2,13.3,24.1,15.4,25.5,16.7L25.5,16.7z"/>
		</g>
	</g>
	<g>
		<g>
			<path d="M16.6,39.2c11.8,0.6,23.7,0.5,35.5-0.3c1.9-0.1,1.9-3.1,0-3c-11.8,0.9-23.6,1-35.5,0.3C14.6,36.1,14.7,39.1,16.6,39.2
				L16.6,39.2z"/>
		</g>
	</g>
</g>
</svg>
